<svg id="visual" viewBox="0 0 1903 825" width="1903" height="825" xmlns="http://www.w3.org/2000/svg" xmlns:xlink="http://www.w3.org/1999/xlink" version="1.1"><rect x="0" y="0" width="1903" height="825" fill="#ffffff"></rect><defs><linearGradient id="grad1_0" x1="56.6%" y1="100%" x2="100%" y2="0%"><stop offset="3.866666666666667%" stop-color="#58d06d" stop-opacity="1"></stop><stop offset="96.13333333333333%" stop-color="#58d06d" stop-opacity="1"></stop></linearGradient></defs><defs><linearGradient id="grad1_1" x1="56.6%" y1="100%" x2="100%" y2="0%"><stop offset="3.866666666666667%" stop-color="#58d06d" stop-opacity="1"></stop><stop offset="96.13333333333333%" stop-color="#80da8a" stop-opacity="1"></stop></linearGradient></defs><defs><linearGradient id="grad1_2" x1="56.6%" y1="100%" x2="100%" y2="0%"><stop offset="3.866666666666667%" stop-color="#a2e4a7" stop-opacity="1"></stop><stop offset="96.13333333333333%" stop-color="#80da8a" stop-opacity="1"></stop></linearGradient></defs><defs><linearGradient id="grad1_3" x1="56.6%" y1="100%" x2="100%" y2="0%"><stop offset="3.866666666666667%" stop-color="#a2e4a7" stop-opacity="1"></stop><stop offset="96.13333333333333%" stop-color="#c2edc4" stop-opacity="1"></stop></linearGradient></defs><defs><linearGradient id="grad1_4" x1="56.6%" y1="100%" x2="100%" y2="0%"><stop offset="3.866666666666667%" stop-color="#e1f6e1" stop-opacity="1"></stop><stop offset="96.13333333333333%" stop-color="#c2edc4" stop-opacity="1"></stop></linearGradient></defs><defs><linearGradient id="grad1_5" x1="56.6%" y1="100%" x2="100%" y2="0%"><stop offset="3.866666666666667%" stop-color="#e1f6e1" stop-opacity="1"></stop><stop offset="96.13333333333333%" stop-color="#ffffff" stop-opacity="1"></stop></linearGradient></defs><defs><linearGradient id="grad2_0" x1="0%" y1="100%" x2="43.4%" y2="0%"><stop offset="3.866666666666667%" stop-color="#58d06d" stop-opacity="1"></stop><stop offset="96.13333333333333%" stop-color="#58d06d" stop-opacity="1"></stop></linearGradient></defs><defs><linearGradient id="grad2_1" x1="0%" y1="100%" x2="43.4%" y2="0%"><stop offset="3.866666666666667%" stop-color="#80da8a" stop-opacity="1"></stop><stop offset="96.13333333333333%" stop-color="#58d06d" stop-opacity="1"></stop></linearGradient></defs><defs><linearGradient id="grad2_2" x1="0%" y1="100%" x2="43.4%" y2="0%"><stop offset="3.866666666666667%" stop-color="#80da8a" stop-opacity="1"></stop><stop offset="96.13333333333333%" stop-color="#a2e4a7" stop-opacity="1"></stop></linearGradient></defs><defs><linearGradient id="grad2_3" x1="0%" y1="100%" x2="43.4%" y2="0%"><stop offset="3.866666666666667%" stop-color="#c2edc4" stop-opacity="1"></stop><stop offset="96.13333333333333%" stop-color="#a2e4a7" stop-opacity="1"></stop></linearGradient></defs><defs><linearGradient id="grad2_4" x1="0%" y1="100%" x2="43.4%" y2="0%"><stop offset="3.866666666666667%" stop-color="#c2edc4" stop-opacity="1"></stop><stop offset="96.13333333333333%" stop-color="#e1f6e1" stop-opacity="1"></stop></linearGradient></defs><defs><linearGradient id="grad2_5" x1="0%" y1="100%" x2="43.4%" y2="0%"><stop offset="3.866666666666667%" stop-color="#ffffff" stop-opacity="1"></stop><stop offset="96.13333333333333%" stop-color="#e1f6e1" stop-opacity="1"></stop></linearGradient></defs><g transform="translate(1903, 825)"><path d="M-453.7 0C-442.3 -80.2 -430.9 -160.3 -393 -226.9C-355 -293.4 -290.4 -346.4 -220.5 -381.9C-150.6 -417.5 -75.3 -435.6 0 -453.7L0 0Z" fill="#f0fbf0"></path><path d="M-378.1 0C-368.6 -66.8 -359.1 -133.6 -327.5 -189.1C-295.8 -244.5 -242 -288.6 -183.8 -318.3C-125.5 -347.9 -62.7 -363 0 -378.1L0 0Z" fill="#d2f2d2"></path><path d="M-302.5 0C-294.9 -53.4 -287.3 -106.9 -262 -151.3C-236.7 -195.6 -193.6 -230.9 -147 -254.6C-100.4 -278.3 -50.2 -290.4 0 -302.5L0 0Z" fill="#b2e9b5"></path><path d="M-226.9 0C-221.2 -40.1 -215.5 -80.2 -196.5 -113.4C-177.5 -146.7 -145.2 -173.2 -110.3 -191C-75.3 -208.7 -37.6 -217.8 0 -226.9L0 0Z" fill="#92df98"></path><path d="M-151.2 0C-147.4 -26.7 -143.6 -53.4 -131 -75.6C-118.3 -97.8 -96.8 -115.5 -73.5 -127.3C-50.2 -139.2 -25.1 -145.2 0 -151.2L0 0Z" fill="#6dd57b"></path><path d="M-75.6 0C-73.7 -13.4 -71.8 -26.7 -65.5 -37.8C-59.2 -48.9 -48.4 -57.7 -36.8 -63.7C-25.1 -69.6 -12.5 -72.6 0 -75.6L0 0Z" fill="#58d06d"></path></g><g transform="translate(0, 0)"><path d="M453.8 0C436.1 75.6 418.4 151.1 382.8 221C347.2 290.9 293.7 355.1 226.9 393C160.1 430.8 80 442.3 0 453.8L0 0Z" fill="#f0fbf0"></path><path d="M378.1 0C363.4 63 348.7 125.9 319 184.2C289.3 242.4 244.7 295.9 189.1 327.5C133.4 359 66.7 368.6 0 378.1L0 0Z" fill="#d2f2d2"></path><path d="M302.5 0C290.7 50.4 278.9 100.7 255.2 147.3C231.5 193.9 195.8 236.7 151.3 262C106.7 287.2 53.4 294.9 0 302.5L0 0Z" fill="#b2e9b5"></path><path d="M226.9 0C218 37.8 209.2 75.6 191.4 110.5C173.6 145.4 146.8 177.6 113.4 196.5C80 215.4 40 221.1 0 226.9L0 0Z" fill="#92df98"></path><path d="M151.3 0C145.4 25.2 139.5 50.4 127.6 73.7C115.7 97 97.9 118.4 75.6 131C53.4 143.6 26.7 147.4 0 151.3L0 0Z" fill="#6dd57b"></path><path d="M75.6 0C72.7 12.6 69.7 25.2 63.8 36.8C57.9 48.5 48.9 59.2 37.8 65.5C26.7 71.8 13.3 73.7 0 75.6L0 0Z" fill="#58d06d"></path></g></svg>